<svg width="50" height="49" viewBox="0 0 50 49" fill="none" xmlns="http://www.w3.org/2000/svg">
<path d="M46.6464 12.5081C44.4108 8.66019 41.3784 5.6138 37.5484 3.36823C33.7178 1.12255 29.5359 -2.62149e-08 24.9998 -2.62149e-08C20.4642 -2.62149e-08 16.281 1.1229 12.4511 3.36823C8.62076 5.61368 5.58847 8.66019 3.3529 12.5081C1.11767 16.3559 0 20.5577 0 25.1134C0 30.5859 1.58934 35.5069 4.76883 39.8776C7.94797 44.2487 12.0549 47.2733 17.0894 48.9518C17.6755 49.0611 18.1093 48.9843 18.3913 48.7232C18.6735 48.4619 18.8144 48.1345 18.8144 47.7426C18.8144 47.6772 18.8089 47.0888 18.798 45.9768C18.7869 44.8648 18.7816 43.8947 18.7816 43.0669L18.0329 43.1971C17.5555 43.2849 16.9533 43.3221 16.2262 43.3116C15.4995 43.3014 14.7451 43.2249 13.964 43.0826C13.1825 42.9416 12.4557 42.6146 11.7829 42.1023C11.1105 41.59 10.6331 40.9194 10.3509 40.0916L10.0254 39.3391C9.80844 38.8381 9.46685 38.2816 9.0002 37.6716C8.53354 37.061 8.06164 36.647 7.58427 36.4291L7.35636 36.2652C7.20449 36.1563 7.06357 36.0249 6.93325 35.8725C6.80305 35.72 6.70557 35.5674 6.64047 35.4147C6.57525 35.2618 6.62929 35.1363 6.80316 35.038C6.97703 34.9396 7.29125 34.8918 7.74719 34.8918L8.39798 34.9895C8.83203 35.0769 9.36891 35.3379 10.0093 35.7742C10.6494 36.2101 11.1756 36.7768 11.588 37.4741C12.0873 38.3682 12.689 39.0494 13.3946 39.5182C14.0997 39.987 14.8105 40.221 15.5265 40.221C16.2425 40.221 16.8609 40.1665 17.382 40.058C17.9025 39.949 18.3908 39.7851 18.8467 39.5672C19.042 38.106 19.5738 36.9834 20.4415 36.1988C19.2047 36.0682 18.0927 35.8715 17.105 35.6101C16.1179 35.3482 15.0978 34.9233 14.0455 34.3341C12.9926 33.7458 12.1191 33.0152 11.4249 32.1436C10.7306 31.2715 10.1607 30.1266 9.7162 28.7099C9.27143 27.2927 9.04899 25.6578 9.04899 23.8049C9.04899 21.1666 9.90637 18.9215 11.6208 17.0683C10.8177 15.0848 10.8935 12.8612 11.8485 10.3978C12.4778 10.2014 13.4111 10.3488 14.648 10.8391C15.885 11.3296 16.7907 11.7499 17.366 12.0983C17.9413 12.4466 18.4023 12.7417 18.7496 12.9811C20.7682 12.4145 22.8513 12.1312 24.9995 12.1312C27.1478 12.1312 29.2314 12.4145 31.2501 12.9811L32.487 12.1967C33.3329 11.6732 34.3317 11.1936 35.4812 10.7575C36.6314 10.3217 37.5109 10.2017 38.1188 10.3981C39.095 12.8617 39.182 15.0851 38.3786 17.0686C40.0929 18.9218 40.9507 21.1675 40.9507 23.8052C40.9507 25.6581 40.7274 27.2982 40.2833 28.7263C39.8387 30.1547 39.264 31.2984 38.5589 32.1599C37.853 33.0213 36.974 33.7462 35.9217 34.3345C34.8691 34.9232 33.8487 35.3481 32.8615 35.6099C31.874 35.8718 30.762 36.0685 29.5252 36.1993C30.6532 37.18 31.2174 38.7279 31.2174 40.8424V47.7417C31.2174 48.1336 31.353 48.4608 31.6246 48.7223C31.8959 48.9833 32.3242 49.0602 32.9102 48.9508C37.9454 47.2725 42.0524 44.2478 45.2314 39.8767C48.4101 35.5059 50 30.585 50 25.1125C49.9989 20.5573 48.8806 16.3559 46.6464 12.5081Z" fill="black"/>
</svg>
